<svg width="2400" height="600" viewBox="0 0 2400 600" xmlns="http://www.w3.org/2000/svg">
  <defs>
    <linearGradient id="bg" x1="0" y1="0" x2="0" y2="1">
      <stop offset="0%" stop-color="#4361EE"/>
      <stop offset="50%" stop-color="#7C3AED"/>
      <stop offset="100%" stop-color="#EC4899"/>
    </linearGradient>
    <linearGradient id="cg" x1="0" y1="0" x2="0" y2="1">
      <stop offset="0%" stop-color="#4361EE"/>
      <stop offset="50%" stop-color="#7C3AED"/>
      <stop offset="100%" stop-color="#EC4899"/>
    </linearGradient>
    <linearGradient id="text-grad" x1="0" y1="0" x2="1" y2="0">
      <stop offset="0%" stop-color="#4361EE"/>
      <stop offset="50%" stop-color="#7C3AED"/>
      <stop offset="100%" stop-color="#EC4899"/>
    </linearGradient>
  </defs>

  <rect width="2400" height="600" fill="#0F172A"/>
  <!-- App icon -->
  <g transform="translate(120, 60)">
    <rect x="0" y="0" width="480" height="480" rx="110" fill="url(#bg)"/>
    <circle cx="240" cy="240" r="165" fill="#fff" opacity="0.04"/>

    <!-- Connection lines -->
    <line x1="240" y1="240" x2="108" y2="108" stroke="#fff" stroke-width="19" stroke-linecap="round" opacity="0.45"/>
    <line x1="240" y1="240" x2="372" y2="93" stroke="#fff" stroke-width="16" stroke-linecap="round" opacity="0.4"/>
    <line x1="240" y1="240" x2="405" y2="262" stroke="#fff" stroke-width="13.5" stroke-linecap="round" opacity="0.3"/>
    <line x1="240" y1="240" x2="87" y2="312" stroke="#fff" stroke-width="13.5" stroke-linecap="round" opacity="0.3"/>
    <line x1="240" y1="240" x2="175" y2="394" stroke="#fff" stroke-width="16" stroke-linecap="round" opacity="0.4"/>
    <line x1="240" y1="240" x2="372" y2="377" stroke="#fff" stroke-width="12" stroke-linecap="round" opacity="0.25"/>

    <!-- Spark dots -->
    <circle cx="174" cy="174" r="15" fill="#fff" opacity="0.85"/>
    <circle cx="306" cy="166" r="12" fill="#fff" opacity="0.7"/>
    <circle cx="207" cy="317" r="12" fill="#fff" opacity="0.65"/>
    <circle cx="306" cy="308" r="10" fill="#fff" opacity="0.45"/>

    <!-- Outer nodes -->
    <circle cx="108" cy="108" r="25" fill="#fff" opacity="0.95"/>
    <circle cx="372" cy="93" r="21" fill="#fff" opacity="0.85"/>
    <circle cx="405" cy="262" r="19" fill="#fff" opacity="0.7"/>
    <circle cx="87" cy="312" r="19" fill="#fff" opacity="0.7"/>
    <circle cx="175" cy="394" r="22" fill="#fff" opacity="0.9"/>
    <circle cx="372" cy="377" r="17" fill="#fff" opacity="0.6"/>

    <!-- Central node -->
    <circle cx="240" cy="240" r="55" fill="#fff"/>
    <circle cx="240" cy="240" r="34" fill="none" stroke="url(#cg)" stroke-width="10" opacity="0.5"/>
    <circle cx="240" cy="240" r="17" fill="url(#cg)" opacity="0.35"/>
  </g>

  <!-- Wordmark -->
  <text x="720" y="365" font-family="-apple-system, BlinkMacSystemFont, 'Segoe UI', Roboto, Helvetica, Arial, sans-serif" font-size="280" font-weight="400" fill="#FFFFFF" letter-spacing="-6">synaps</text>
</svg>